<?xml version="1.0" encoding="UTF-8"?>
<svg id="Artwork" xmlns="http://www.w3.org/2000/svg" version="1.1" viewBox="0 0 986.4 320">
  <defs>
    <style>
      .cls-1 {
        fill: #010c66;
        stroke-width: 0px;
      }
    </style>
  </defs>
  <rect class="cls-1" x="503.75" y="0" width="2.5" height="320"/>
  <path class="cls-1" d="M575.16,144.87h27.51l6.23,16.7h13.8l-25.7-68h-16.3l-25.6,68h13.8l6.26-16.7ZM588.95,108.08l9.17,24.59h-18.39l9.22-24.59Z"/>
  <polygon class="cls-1" points="661.6 132.77 689.9 132.77 689.9 161.57 703.8 161.57 703.8 93.57 689.9 93.57 689.9 120.67 661.6 120.67 661.6 93.57 647.7 93.57 647.7 161.57 661.6 161.57 661.6 132.77"/>
  <path class="cls-1" d="M751,113.72c-3.73-2.43-8.23-3.65-13.5-3.65s-9.52,1.17-13.35,3.5c-3.83,2.33-6.8,5.48-8.9,9.45-2.1,3.97-3.15,8.45-3.15,13.45s1.03,9.4,3.1,13.4,5.02,7.17,8.85,9.5c3.83,2.33,8.42,3.5,13.75,3.5,3.8,0,7.32-.63,10.55-1.9,3.23-1.27,6.02-3.08,8.35-5.45,2.33-2.37,4.07-5.22,5.2-8.55h-12.9c-.67,1.4-1.93,2.63-3.8,3.7-1.87,1.07-4.03,1.63-6.5,1.7-2.4,0-4.67-.58-6.8-1.75-2.13-1.17-3.83-2.93-5.1-5.3-.75-1.41-1.28-3.03-1.58-4.85h37.28v-2.7c0-5.2-.98-9.9-2.95-14.1-1.97-4.2-4.82-7.52-8.55-9.95ZM725.46,130.97c.31-1.33.73-2.51,1.28-3.55,1.23-2.3,2.83-4.02,4.8-5.15,1.97-1.13,4.02-1.7,6.15-1.7,3.27,0,5.95,1.03,8.05,3.1,2.1,2.07,3.25,4.5,3.45,7.3h-23.73Z"/>
  <path class="cls-1" d="M776.95,161.32c2.17.97,4.85,1.45,8.05,1.45,1.07,0,2.07-.07,3-.2.93-.13,1.83-.27,2.7-.4v-11c-.27.07-.62.12-1.05.15-.43.03-.92.05-1.45.05-1.8,0-2.98-.38-3.55-1.15-.57-.77-.85-1.85-.85-3.25v-56.4l-13.3,1.1v57.8c0,3,.53,5.48,1.6,7.45,1.07,1.97,2.68,3.43,4.85,4.4Z"/>
  <path class="cls-1" d="M846.7,149.87c2-4.07,3-8.7,3-13.9,0-5.53-1.05-10.22-3.15-14.05-2.1-3.83-4.83-6.77-8.2-8.8-3.37-2.03-6.98-3.05-10.85-3.05-2.4,0-4.8.48-7.2,1.45-2.4.97-4.55,2.32-6.45,4.05-.52.48-1,.99-1.44,1.53-.03-.4-.07-.8-.11-1.18-.2-1.9-.43-3.38-.7-4.45h-13.3c.33,1.6.58,3.37.75,5.3.17,1.93.25,4.07.25,6.4v56.3h13.3v-21.35c1.41,1.19,2.97,2.19,4.7,2.95,2.73,1.2,5.73,1.8,9,1.8,4.53,0,8.57-1.15,12.1-3.45,3.53-2.3,6.3-5.48,8.3-9.55ZM834.7,144.07c-1.07,2.33-2.57,4.18-4.5,5.55-1.93,1.37-4.23,2.05-6.9,2.05-2,0-3.93-.43-5.8-1.3-1.87-.87-3.5-2.1-4.9-3.7v-12.5c0-2.6.48-4.85,1.45-6.75.97-1.9,2.32-3.38,4.05-4.45,1.73-1.07,3.77-1.6,6.1-1.6s4.4.55,6.2,1.65c1.8,1.1,3.23,2.73,4.3,4.9,1.07,2.17,1.6,4.85,1.6,8.05s-.53,5.77-1.6,8.1Z"/>
  <path class="cls-1" d="M581.65,195.54c3.1-1.97,6.71-2.95,10.85-2.95s7.6,1.05,10.8,3.15,5.3,5.02,6.3,8.75h14c-.6-3.87-1.9-7.3-3.9-10.3s-4.43-5.5-7.3-7.5c-2.87-2-6.02-3.5-9.45-4.5-3.43-1-6.95-1.5-10.55-1.5-4.93,0-9.52.88-13.75,2.65-4.23,1.77-7.92,4.23-11.05,7.4-3.13,3.17-5.57,6.9-7.3,11.2-1.73,4.3-2.6,8.98-2.6,14.05s.87,9.73,2.6,14c1.73,4.27,4.17,8,7.3,11.2,3.13,3.2,6.82,5.68,11.05,7.45,4.23,1.77,8.82,2.65,13.75,2.65,3.6,0,7.13-.5,10.6-1.5,3.47-1,6.62-2.5,9.45-4.5,2.83-2,5.25-4.5,7.25-7.5s3.3-6.43,3.9-10.3h-14c-1,3.8-3.1,6.73-6.3,8.8-3.2,2.07-6.8,3.1-10.8,3.1s-7.75-.98-10.85-2.95c-3.1-1.97-5.54-4.7-7.3-8.2-1.77-3.5-2.65-7.58-2.65-12.25s.88-8.83,2.65-12.3c1.77-3.47,4.2-6.18,7.3-8.15Z"/>
  <path class="cls-1" d="M668.75,202c-3.9-2.33-8.55-3.5-13.95-3.5s-10.07,1.17-14,3.5c-3.93,2.33-6.95,5.5-9.05,9.5-2.1,4-3.15,8.47-3.15,13.4s1.05,9.5,3.15,13.5c2.1,4,5.12,7.15,9.05,9.45,3.93,2.3,8.6,3.45,14,3.45s9.95-1.15,13.85-3.45c3.9-2.3,6.92-5.45,9.05-9.45,2.13-4,3.2-8.5,3.2-13.5s-1.05-9.4-3.15-13.4c-2.1-4-5.1-7.17-9-9.5ZM665.85,233.2c-1.1,2.33-2.62,4.1-4.55,5.3-1.93,1.2-4.1,1.8-6.5,1.8s-4.65-.6-6.55-1.8c-1.9-1.2-3.42-2.97-4.55-5.3-1.13-2.33-1.7-5.1-1.7-8.3s.57-5.95,1.7-8.25c1.13-2.3,2.65-4.05,4.55-5.25,1.9-1.2,4.08-1.8,6.55-1.8s4.57.6,6.5,1.8c1.93,1.2,3.45,2.95,4.55,5.25,1.1,2.3,1.65,5.05,1.65,8.25s-.55,5.97-1.65,8.3Z"/>
  <path class="cls-1" d="M753.75,200.7c-2.5-1.47-5.32-2.2-8.45-2.2-3.67,0-7.12,1.12-10.35,3.35-2.05,1.42-3.78,3.19-5.2,5.31-1.36-2.74-3.22-4.86-5.6-6.36-2.43-1.53-5.18-2.3-8.25-2.3-2.4,0-4.72.52-6.95,1.55-2.23,1.03-4.18,2.48-5.85,4.35-.56.63-1.06,1.31-1.53,2.03-.05-.75-.1-1.47-.17-2.13-.2-1.87-.43-3.33-.7-4.4h-13c.33,1.6.58,3.37.75,5.3.17,1.93.25,4.07.25,6.4v38.4h13.3v-30.9c0-1.73.4-3.27,1.2-4.6.8-1.33,1.88-2.38,3.25-3.15,1.37-.77,2.92-1.15,4.65-1.15,2.2,0,4.02.65,5.45,1.95,1.43,1.3,2.15,3.28,2.15,5.95v31.9h13.2v-31.2c0-1.73.42-3.25,1.25-4.55.83-1.3,1.92-2.3,3.25-3,1.33-.7,2.87-1.05,4.6-1.05,2.2,0,4.02.65,5.45,1.95,1.43,1.3,2.15,3.28,2.15,5.95v31.9h13.3v-32.7c0-4.07-.73-7.48-2.2-10.25-1.47-2.77-3.45-4.88-5.95-6.35Z"/>
  <path class="cls-1" d="M810.35,201.54c-3.37-2.03-6.98-3.05-10.85-3.05-2.4,0-4.8.48-7.2,1.45-2.4.97-4.55,2.32-6.45,4.05-.52.48-1,.99-1.44,1.53-.03-.4-.07-.8-.11-1.18-.2-1.9-.43-3.38-.7-4.45h-13.3c.33,1.6.58,3.37.75,5.3.17,1.93.25,4.07.25,6.4v56.3h13.3v-21.35c1.41,1.19,2.97,2.19,4.7,2.95,2.73,1.2,5.73,1.8,9,1.8,4.53,0,8.57-1.15,12.1-3.45,3.53-2.3,6.3-5.48,8.3-9.55,2-4.07,3-8.7,3-13.9,0-5.53-1.05-10.22-3.15-14.05-2.1-3.83-4.83-6.77-8.2-8.8ZM806.7,232.5c-1.07,2.33-2.57,4.18-4.5,5.55-1.93,1.37-4.23,2.05-6.9,2.05-2,0-3.93-.43-5.8-1.3-1.87-.87-3.5-2.1-4.9-3.7v-12.5c0-2.6.48-4.85,1.45-6.75.97-1.9,2.32-3.38,4.05-4.45,1.73-1.07,3.77-1.6,6.1-1.6s4.4.55,6.2,1.65c1.8,1.1,3.23,2.73,4.3,4.9,1.07,2.17,1.6,4.85,1.6,8.05s-.53,5.77-1.6,8.1Z"/>
  <path class="cls-1" d="M872.3,236.1v-18.1c0-3.8-.73-7.17-2.2-10.1-1.47-2.93-3.77-5.23-6.9-6.9-3.13-1.67-7.23-2.5-12.3-2.5-4.73,0-8.7.73-11.9,2.2-3.2,1.47-5.62,3.4-7.25,5.8-1.63,2.4-2.55,5.03-2.75,7.9h13.3c.2-1.8,1.02-3.2,2.45-4.2,1.43-1,3.38-1.5,5.85-1.5,2.73,0,4.85.73,6.35,2.2,1.5,1.47,2.25,3.7,2.25,6.7v1.98l-7.6.12c-8.6.13-14.85,1.62-18.75,4.45-3.9,2.83-5.85,6.68-5.85,11.55s1.55,8.43,4.65,11.3c3.1,2.87,7.21,4.3,12.35,4.3,3.07,0,5.87-.5,8.4-1.5,2.53-1,4.68-2.4,6.45-4.2.87-.89,1.62-1.85,2.24-2.89.65,2.33,1.62,4.12,2.91,5.34,1.87,1.77,4.5,2.65,7.9,2.65h3.8v-11c-1.2-.07-2.07-.37-2.6-.9-.53-.53-.8-1.43-.8-2.7ZM857.65,235.4c-1.04,1.73-2.45,3.17-4.25,4.3-1.8,1.13-3.83,1.7-6.1,1.7-2,0-3.68-.52-5.05-1.55-1.37-1.03-2.05-2.52-2.05-4.45,0-2.2,1-3.9,3-5.1,2-1.2,5.03-1.83,9.1-1.9l6.9-.17v1.57c0,2-.52,3.87-1.55,5.6Z"/>
  <path class="cls-1" d="M920.75,200.75c-2.7-1.5-5.68-2.25-8.95-2.25-2.73,0-5.29.53-7.65,1.6-2.37,1.07-4.38,2.55-6.05,4.45-.56.64-1.05,1.32-1.52,2.02-.05-.8-.1-1.57-.18-2.27-.2-1.87-.43-3.33-.7-4.4h-13c.33,1.6.58,3.37.75,5.3.17,1.93.25,4.07.25,6.4v38.4h13.3v-29.7c0-2,.43-3.75,1.3-5.25.87-1.5,2.08-2.68,3.65-3.55,1.57-.87,3.35-1.3,5.35-1.3,2.67,0,4.83.75,6.5,2.25,1.67,1.5,2.5,3.78,2.5,6.85v30.7h13.3v-32.3c0-4.13-.8-7.62-2.4-10.45-1.6-2.83-3.75-5-6.45-6.5Z"/>
  <path class="cls-1" d="M972.1,199.9l-11.48,35.2-12.62-35.2h-14.5l20.63,50.7c-.83,2.33-1.91,4.1-3.23,5.3-1.47,1.33-3.54,2-6.2,2-.47,0-1.07-.03-1.8-.1-.73-.07-1.8-.23-3.2-.5v11.2c1.13.27,2.38.45,3.75.55,1.37.1,2.52.15,3.45.15,3.87,0,7.05-.67,9.55-2,2.5-1.33,4.57-3.22,6.2-5.65,1.63-2.43,3.02-5.32,4.15-8.65l19.6-53h-14.3Z"/>
  <path class="cls-1" d="M291.45,21.85c8.18,0,15.46-2.45,15.46-5.82,0-1-1.44-.54-2.12-.35-2.63.73-8.97,2.48-15.64,1.03-.64,1.36-1.99,2.93-6.01,3.81,2.2.72,5.3,1.34,8.32,1.34Z"/>
  <path class="cls-1" d="M326.38,74.11c-2.33-2.25-4.75-4.39-7.26-6.42h-39.3c2.52,2,4.93,4.15,7.24,6.42h39.32Z"/>
  <path class="cls-1" d="M173.71,31.05c-2.31,1.07-5.28,1.73-7.95,1.73-5.15,0-8.24-.88-9.13-.88-.53,0-.71.18-.71.53,0,1.6,4.58,5.07,12.94,5.07,4.27,0,8.03-.86,10.88-2.99-2.21-.47-4.92-1.79-6.03-3.46Z"/>
  <path class="cls-1" d="M309.16,22.01c11.38,0,20.93-5.59,20.93-8.79,0-.53-.33-1.03-1.07-.89-2.62.52-7.23,4.21-19.14,4.21-.36,2.49-1.88,3.95-5.9,5.23,2.67.22,3.4.24,5.17.24Z"/>
  <path class="cls-1" d="M312.88,63c-3.33-2.32-6.79-4.45-10.36-6.38h-40.84c4.03,1.83,7.92,3.95,11.63,6.38h39.57Z"/>
  <path class="cls-1" d="M193.62,12.04c5.58,0,9.45,4.54,9.45,9.55,0,3.66-2.09,6.44-5.06,8.53.36.44.73.83,1.1,1.24.56.64,1.12,1.21,1.68,1.78.94.94,1.89,1.8,2.86,2.55.23.18.47.36.71.53,1.03.74,2.08,1.37,3.16,1.89.5.24,1,.47,1.51.66.57.22,1.15.43,1.74.6,1.15.3,2.34.51,3.59.6.3.02.59.07.89.08v5.91c0,4.61,4.66,7.1,10.03,7.1s10.03-2.49,10.03-7.1v-5.91c.3-.01.59-.06.89-.08,1.25-.09,2.44-.3,3.58-.6.59-.16,1.17-.38,1.74-.6.51-.19,1.01-.42,1.51-.66,1.08-.53,2.13-1.15,3.16-1.89.23-.17.47-.35.71-.53.97-.75,1.92-1.61,2.86-2.55.56-.56,1.12-1.14,1.68-1.78.37-.41.73-.8,1.1-1.24-2.97-2.09-5.06-4.87-5.06-8.53,0-5.01,3.87-9.55,9.45-9.55,2.7,0,4.83,1.15,7.03,2.49.77-1.13,1.51-2.26,2.24-3.39-2.78-1.9-6.03-3.04-9.15-3.04-8.32,0-13.66,6.68-13.66,13.48,0,3.66,1.67,6.67,3.77,9.11-2.45,2.45-6.18,5.91-11.85,5.73V7.1C235.3,2.48,230.64,0,225.27,0s-10.03,2.48-10.03,7.1v29.32c-5.67.18-9.4-3.28-11.85-5.73,2.09-2.44,3.77-5.45,3.77-9.11,0-6.8-5.34-13.48-13.66-13.48-3.12,0-6.37,1.14-9.15,3.04.73,1.13,1.48,2.26,2.24,3.39,2.19-1.34,4.32-2.49,7.03-2.49ZM225.27,3.13c2.58,0,4.66.65,5.86,1.79l-5.86,5.71-5.86-5.71c1.19-1.14,3.28-1.79,5.86-1.79ZM218.3,7.45s0-.04,0-.06l6.97,6.79,6.97-6.79s0,.04,0,.06v4.76l-6.97,6.8-6.97-6.8v-4.76ZM218.3,15.77l6.97,6.8,6.97-6.8v4.83l-6.97,6.8-6.97-6.8v-4.83ZM218.3,24.14l6.97,6.8,6.97-6.8v4.83l-6.97,6.8-6.97-6.8v-4.83ZM218.3,32.52l6.97,6.8,6.97-6.8v4.83l-6.97,6.8-6.97-6.8v-4.83ZM218.3,40.9l6.97,6.79,6.97-6.79v4.71c0,2.66-2.85,4.32-6.97,4.32s-6.97-1.66-6.97-4.32v-4.71Z"/>
  <path class="cls-1" d="M266.13,16.35c2.85,1.78,6.29,2.46,10.38,2.46,4.44,0,9.95-1.24,9.95-3.2,0-.89-1.6-.74-4.62-.62-3.99.15-8.74-.17-13.12-2.54-.01.02-.03.01-.04.03-.83,1.29-1.68,2.58-2.56,3.86,0,0,0,.01,0,.02Z"/>
  <path class="cls-1" d="M193.81,29.31c-.85-1.12-1.85-2.44-3.02-4.01-3.4,2.15-6.46,3.45-13.15,3.15-1.24-.06-1.78,0-1.78.71,0,1.07,3.74,3.27,8.36,3.27,3.52,0,7.27-1.36,9.59-3.12Z"/>
  <path class="cls-1" d="M251.37,21.76c0,2.19,1.26,4.24,3.43,5.59.73-.96,1.54-2.03,2.48-3.3-1.77-1.07-2.56-2.57-1.53-3.89.97-1.25,2.51-.81,4.04.46.72-1.01,1.47-2.05,2.22-3.12-1.34-1-2.85-1.76-4.52-1.76-3.8,0-6.13,2.82-6.13,6.02Z"/>
  <path class="cls-1" d="M306.32,43.92c0-.53-.53-.97-1.76-.79-3.68.56-8.42.49-13.2-1.15-1.24,2.31-3.37,3.51-6.26,4.28,3.43,1.26,7.17,1.69,9.66,1.69,6.93,0,11.56-2.42,11.56-4.04Z"/>
  <path class="cls-1" d="M272.9,28.45c-6.69.31-9.75-1-13.15-3.15-1.17,1.57-2.16,2.89-3.02,4.01,2.32,1.76,6.07,3.12,9.59,3.12,4.62,0,8.36-2.21,8.36-3.27,0-.71-.53-.77-1.78-.71Z"/>
  <path class="cls-1" d="M276.69,44.96c7.29,0,11.08-2.8,11.08-4.07,0-.53-.31-.64-.85-.64-.89,0-4.1.37-6.23.3-4.65-.17-7.32-.93-10.16-2.36-1.92,2.17-3.49,2.59-6.22,3.02,3.18,2.31,8.34,3.75,12.38,3.75Z"/>
  <path class="cls-1" d="M281.67,37.51c8.36,0,12.94-3.47,12.94-5.07,0-.36-.18-.53-.71-.53-.89,0-3.97.88-9.12.88-2.66,0-5.64-.66-7.95-1.73-1.12,1.68-3.83,2.99-6.03,3.46,2.85,2.13,6.61,2.99,10.88,2.99Z"/>
  <path class="cls-1" d="M244.53,40.63c-1.28.65-2.58,1.17-3.93,1.54,1.85,3.6,4.53,6.08,8.34,6.5,2.12.23,4.11-.66,4.1-1.54,0-.53-1.66-.76-2.73-1.28-2.68-1.15-4.25-2.63-5.78-5.22Z"/>
  <path class="cls-1" d="M296.77,85.26h39.7c-1.75-2.22-3.59-4.37-5.5-6.45h-39.42c1.83,2.06,3.57,4.21,5.22,6.45Z"/>
  <path class="cls-1" d="M260.4,42.04c0-.61-1.12-.57-2.04-.7-1.9-.27-4.82-.68-8.18-4.58-1.08.97-2.17,1.79-3.26,2.52,1.99,2.87,4.8,4.72,7.13,5.13,3.69.66,6.35-1.31,6.35-2.38Z"/>
  <path class="cls-1" d="M316.08,34.45c0-.36-.18-.89-.89-.89-2.13,0-4.05,1.55-10.8,1.55-1.6,0-4.64-.36-6.95-1.07-.89,2.49-3.65,4.12-6.3,4.86,3.4,1,6.57,1.37,9.77,1.37,9.07,0,15.17-3.64,15.17-5.83Z"/>
  <path class="cls-1" d="M278.6,21.39c-6.01.36-9.62-.35-14.09-2.7-.96,1.37-1.9,2.69-2.81,3.95,2.66,2.04,6.5,3.02,10.33,3.02,4.62,0,9.1-1.95,9.1-3.37,0-.71-.93-.99-2.53-.9Z"/>
  <path class="cls-1" d="M153.1,34.04c-2.31.71-5.35,1.07-6.95,1.07-6.75,0-8.66-1.55-10.8-1.55-.71,0-.89.53-.89.89,0,2.18,6.11,5.83,15.17,5.83,3.2,0,6.37-.37,9.77-1.38-2.66-.74-5.42-2.37-6.3-4.86Z"/>
  <path class="cls-1" d="M261.12,38.82c4.27,0,7.32-1.93,7.35-2.99.02-.71-.69-.69-1.76-.63-4.49.26-8.08-.64-11.98-3.3-.13.17-.3.38-.32.42-.8.95-1.58,1.82-2.37,2.64,2.77,2.37,5.63,3.87,9.08,3.87Z"/>
  <path class="cls-1" d="M278.63,48.14c0-.71-1.97-.29-4.79-.53-4.66-.4-7.59-1.59-11.12-3.81-.93,1.68-3.02,2.98-5.26,3.01,2.39,1.68,7.94,4.05,13.15,4.05s8.02-1.64,8.02-2.73Z"/>
  <path class="cls-1" d="M299.78,23.64c-1.77.21-5.14,1.26-9.58,1.26-1.96,0-4.2-.24-6.53-.92-.89,1.6-3.16,3.03-6.72,3.74,2.13,1.24,6.29,2,9.13,2,7.69,0,14.94-2.52,14.94-5.18,0-.53-.25-1-1.24-.89Z"/>
  <path class="cls-1" d="M324.4,23.63c0-.53-.25-.97-1.24-.77-1.22.24-7.85,3.94-18.77,2.58-.36,2.31-3.29,4.48-7.2,5.37,1.96.38,5.38.63,8.4.63,10.31,0,18.81-4.43,18.81-7.81Z"/>
  <path class="cls-1" d="M116.88,197.25h40.28c-1.48-2.17-2.89-4.4-4.22-6.69h-39.68c1.1,2.28,2.31,4.51,3.62,6.69Z"/>
  <path class="cls-1" d="M132.1,216.31c2.41,2.33,4.97,4.56,7.66,6.69h42.57c-2.91-2.05-5.72-4.29-8.42-6.69h-41.8Z"/>
  <path class="cls-1" d="M193.69,247.05c10.91,1.81,22.12,2.95,31.6,2.95s20.7-1.15,31.61-2.95c6.51-1.3,12.74-2.99,18.68-5.05h-100.58c5.94,2.05,12.17,3.75,18.68,5.05Z"/>
  <path class="cls-1" d="M192.43,229.17h-44.04c3.75,2.42,7.7,4.65,11.85,6.69h50.11c-6.16-1.43-12.17-3.7-17.93-6.69Z"/>
  <path class="cls-1" d="M161.76,203.47h-40.8c1.65,2.29,3.41,4.53,5.29,6.69h41.31c-2.02-2.14-3.96-4.37-5.81-6.69Z"/>
  <path class="cls-1" d="M155.77,47.96c2.49,0,6.23-.44,9.66-1.69-2.88-.77-5.01-1.97-6.26-4.28-4.78,1.64-9.52,1.71-13.2,1.15-1.23-.19-1.76.25-1.76.79,0,1.63,4.62,4.04,11.56,4.04Z"/>
  <path class="cls-1" d="M158.99,78.81h-39.42c-1.91,2.07-3.74,4.22-5.5,6.45h39.7c1.65-2.23,3.39-4.39,5.22-6.45Z"/>
  <path class="cls-1" d="M99,178.85v-81.69c0-2.69-.72-3.59-3.6-3.59h-11.83c-2.87,0-3.77.9-3.77,3.59v46.35l-41.24-47.81c-1.42-1.6-2.26-2.13-4.98-2.13H3.77c-2.57,0-3.77,1.21-3.77,3.59v81.69c0,2.39,1.2,3.59,3.77,3.59h11.83c2.56,0,3.59-1.21,3.59-3.59v-52.75l46.03,53.68c1.6,1.78,2.41,2.66,5.87,2.66h24.31c2.87,0,3.6-.9,3.6-3.59Z"/>
  <path class="cls-1" d="M240.23,235.86h50.11c4.15-2.04,8.1-4.28,11.85-6.69h-44.04c-5.76,2.99-11.77,5.27-17.93,6.69Z"/>
  <path class="cls-1" d="M337.32,190.56h-39.68c-1.33,2.28-2.73,4.52-4.22,6.69h40.28c1.31-2.18,2.51-4.42,3.61-6.69Z"/>
  <path class="cls-1" d="M141.38,22.01c1.78,0,2.5-.01,5.17-.24-4.01-1.28-5.54-2.74-5.9-5.23-11.91,0-16.52-3.69-19.14-4.21-.74-.15-1.07.36-1.07.89,0,3.2,9.55,8.79,20.93,8.79Z"/>
  <path class="cls-1" d="M421.3,96.42c-.71-1.78-1.58-2.85-4.09-2.85h-35.9c-2.31,0-3.73.71-4.44,2.85l-29.95,82.91c-.71,2.13-.09,3.11,2.04,3.11h13.36c2.31,0,3.18-.27,4.07-2.76l5.68-15.72h35.37l5.33,14.04c1.48,3.85,2.48,4.44,5.68,4.44h30.81c3.28,0,4.02-.99,2.77-4.52l-30.73-81.51ZM377.76,148.5l11.73-32.53,12.27,32.53h-24Z"/>
  <path class="cls-1" d="M339.08,93.57h-37.46c-3.46,0-4.09,1.24-5.15,3.73l-17.77,43.19-18.31-43.19c-1.07-2.67-2.13-3.73-5.69-3.73h-35.16c-2.87,0-3.77.9-3.77,3.59v81.69c0,2.69.9,3.59,3.77,3.59h11.72c2.87,0,3.71-.9,3.71-3.59v-52.75l22.57,52.61c1.58,3.25,2.13,3.73,4.62,3.73h15.82c3.29,0,4.1-.63,5.33-3.55l21.51-52.61v52.57c0,2.69.9,3.59,3.77,3.59h30.67c2.87,0,3.42-.9,3.42-3.59v-81.69c0-2.69-.72-3.59-3.59-3.59Z"/>
  <path class="cls-1" d="M283.02,210.16h41.31c1.88-2.16,3.64-4.4,5.29-6.69h-40.8c-1.85,2.32-3.79,4.56-5.81,6.69Z"/>
  <path class="cls-1" d="M268.26,223h42.56c2.69-2.13,5.25-4.36,7.66-6.69h-41.8c-2.7,2.4-5.52,4.64-8.42,6.69Z"/>
  <path class="cls-1" d="M112.25,182.44h30.49c2.69,0,3.59-.9,3.59-3.59v-39.06l24.88,39.46c1.7,2.59,2.49,3.2,5.34,3.2h31.96c2.68,0,3.38-2.05,1.95-4.36l-23.61-36.7c12.8-3.56,22.57-9.95,22.57-24.88,0-14.04-9.95-22.93-24.17-22.93h-73.01c-2.87,0-3.77.9-3.77,3.6v81.68c0,2.69.9,3.59,3.77,3.59ZM146.33,104.59h11.91c8.53,0,14.04,4.62,14.04,14.58s-5.51,14.4-14.04,14.4h-11.91v-28.97Z"/>
  <path class="cls-1" d="M171.94,21.39c-1.6-.1-2.53.19-2.53.9,0,1.42,4.48,3.37,9.1,3.37,3.83,0,7.67-.98,10.33-3.02-.91-1.26-1.85-2.58-2.81-3.95-4.47,2.36-8.09,3.07-14.09,2.7Z"/>
  <path class="cls-1" d="M166.87,23.97c-2.33.68-4.57.92-6.53.92-4.44,0-7.82-1.05-9.58-1.26-.99-.11-1.25.36-1.25.89,0,2.66,7.26,5.18,14.95,5.18,2.84,0,7-.76,9.13-2-3.56-.71-5.83-2.14-6.72-3.74Z"/>
  <path class="cls-1" d="M193.04,15.74c-1.67,0-3.17.76-4.52,1.76.75,1.07,1.5,2.11,2.22,3.12,1.53-1.26,3.07-1.7,4.05-.46,1.03,1.32.23,2.81-1.53,3.89.94,1.27,1.75,2.34,2.48,3.3,2.18-1.36,3.43-3.4,3.43-5.59,0-3.2-2.33-6.02-6.13-6.02Z"/>
  <path class="cls-1" d="M198.5,34.95c-.79-.82-1.58-1.68-2.37-2.64-.03-.03-.19-.24-.32-.41-3.91,2.66-7.49,3.57-11.98,3.3-1.07-.06-1.78-.09-1.76.63.03,1.06,3.09,2.99,7.35,2.99,3.46,0,6.31-1.5,9.08-3.87Z"/>
  <path class="cls-1" d="M159.09,21.85c3.02,0,6.11-.62,8.32-1.34-4.03-.88-5.38-2.44-6.01-3.81-6.68,1.44-13.01-.3-15.64-1.03-.68-.19-2.12-.64-2.12.35,0,3.37,7.29,5.82,15.46,5.82Z"/>
  <path class="cls-1" d="M186.22,41.21c-2.73-.43-4.3-.85-6.22-3.02-2.84,1.42-5.5,2.19-10.16,2.35-2.13.08-5.34-.3-6.23-.3-.53,0-.85.11-.85.64,0,1.28,3.79,4.08,11.08,4.08,4.03,0,9.19-1.45,12.38-3.75Z"/>
  <path class="cls-1" d="M146.15,25.43c-10.92,1.36-17.54-2.34-18.77-2.58-1-.2-1.24.24-1.24.77,0,3.38,8.5,7.81,18.81,7.81,3.02,0,6.44-.25,8.4-.63-3.91-.89-6.85-3.06-7.2-5.37Z"/>
  <path class="cls-1" d="M201.6,48.67c3.81-.42,6.49-2.9,8.34-6.5-1.35-.37-2.66-.89-3.93-1.54-1.52,2.59-3.1,4.07-5.78,5.22-1.07.52-2.72.75-2.73,1.28,0,.89,1.98,1.78,4.1,1.54Z"/>
  <path class="cls-1" d="M174.03,18.8c4.09,0,7.53-.68,10.38-2.46,0,0,0-.01,0-.02-.87-1.28-1.72-2.57-2.56-3.86-.01-.02-.03-.01-.04-.03-4.38,2.37-9.12,2.7-13.12,2.54-3.02-.12-4.62-.27-4.62.62,0,1.95,5.51,3.2,9.95,3.2Z"/>
  <path class="cls-1" d="M196.49,44.42c2.33-.42,5.14-2.27,7.13-5.14-1.1-.73-2.19-1.55-3.27-2.52-3.36,3.9-6.28,4.31-8.18,4.58-.92.13-2.04.09-2.04.7,0,1.07,2.66,3.04,6.35,2.38Z"/>
  <path class="cls-1" d="M163.47,74.11c2.31-2.27,4.72-4.42,7.24-6.42h-39.3c-2.51,2.03-4.93,4.17-7.26,6.42h39.32Z"/>
  <path class="cls-1" d="M187.82,43.8c-3.52,2.22-6.46,3.41-11.12,3.81-2.82.24-4.79-.18-4.79.53,0,1.08,2.97,2.73,8.02,2.73s10.76-2.37,13.15-4.05c-2.24-.04-4.33-1.33-5.26-3.02Z"/>
  <path class="cls-1" d="M188.86,56.61h-40.84c-3.57,1.93-7.03,4.06-10.36,6.38h39.57c3.71-2.43,7.6-4.56,11.63-6.38Z"/>
  <rect class="cls-1" x="81.07" y="285" width="7.02" height="34.34"/>
  <polygon class="cls-1" points="119.34 309.33 104.6 285 95.91 285 95.91 319.34 102.63 319.34 102.63 294.51 117.58 319.34 126.06 319.34 126.06 285 119.34 285 119.34 309.33"/>
  <path class="cls-1" d="M155.93,301.51c-1.4-.81-3.16-1.45-5.28-1.92l-4.9-1.11c-1.48-.34-2.59-.72-3.33-1.16-.74-.44-1.24-.91-1.49-1.41-.25-.5-.38-1.03-.38-1.57,0-1.28.48-2.3,1.44-3.06.96-.76,2.33-1.14,4.12-1.14,1.31,0,2.37.19,3.16.58.79.39,1.39.88,1.79,1.46.4.59.64,1.19.71,1.79h7.68c-.17-2.05-.87-3.8-2.1-5.23-1.23-1.43-2.81-2.52-4.75-3.28-1.94-.76-4.06-1.14-6.39-1.14-2.46,0-4.68.44-6.67,1.31-1.99.88-3.57,2.13-4.75,3.76-1.18,1.63-1.77,3.58-1.77,5.83,0,2.56.83,4.6,2.5,6.11,1.67,1.52,4.12,2.64,7.35,3.38l4.9,1.06c2.02.47,3.35,1.04,3.99,1.69.64.66.94,1.44.91,2.35-.03,1.31-.56,2.37-1.57,3.18s-2.49,1.21-4.44,1.21c-1.45,0-2.66-.22-3.64-.66-.98-.44-1.72-1.03-2.22-1.77-.5-.74-.79-1.57-.86-2.47h-8.03c.1,2.15.76,4.03,1.97,5.63,1.21,1.6,2.89,2.84,5.02,3.71,2.14.88,4.64,1.31,7.5,1.31s5.17-.43,7.22-1.29c2.05-.86,3.65-2.1,4.8-3.74,1.14-1.63,1.72-3.59,1.72-5.88,0-1.82-.35-3.33-1.06-4.54s-1.76-2.22-3.16-3.03Z"/>
  <path class="cls-1" d="M187.77,306.31c0,2.39-.62,4.27-1.87,5.63-1.25,1.36-3.06,2.05-5.45,2.05s-4.18-.68-5.45-2.05c-1.28-1.36-1.92-3.24-1.92-5.63v-21.31h-7.02v21.56c0,2.56.54,4.86,1.62,6.89,1.08,2.04,2.68,3.64,4.8,4.8,2.12,1.16,4.78,1.74,7.98,1.74s5.85-.58,7.95-1.74c2.1-1.16,3.68-2.76,4.72-4.8,1.04-2.04,1.57-4.33,1.57-6.89v-21.56h-6.92v21.31Z"/>
  <path class="cls-1" d="M224.28,304.85c1.75-.81,3.08-1.99,3.99-3.53.91-1.55,1.36-3.43,1.36-5.66s-.46-4.17-1.39-5.76c-.93-1.58-2.29-2.79-4.09-3.64-1.8-.84-4-1.26-6.59-1.26h-15.3v34.34h7.02v-13.28h5.23l8.85,13.28h7.68l-9.18-13.71c.87-.2,1.69-.45,2.42-.78ZM209.29,290.86h8.13c1.58,0,2.84.42,3.79,1.26.94.84,1.41,2.02,1.41,3.54s-.47,2.74-1.41,3.56c-.94.83-2.21,1.24-3.79,1.24h-8.13v-9.59Z"/>
  <path class="cls-1" d="M246.96,285l-12.93,34.34h6.97l3.16-8.43h13.89l3.15,8.43h6.97l-12.98-34.34h-8.23ZM246.47,304.75l4.65-12.42,4.63,12.42h-9.29Z"/>
  <polygon class="cls-1" points="296.35 309.33 281.6 285 272.91 285 272.91 319.34 279.63 319.34 279.63 294.51 294.58 319.34 303.06 319.34 303.06 285 296.35 285 296.35 309.33"/>
  <path class="cls-1" d="M321.22,291.84c1.57-.99,3.39-1.49,5.48-1.49s3.84.53,5.45,1.59c1.62,1.06,2.68,2.53,3.18,4.42h7.07c-.3-1.95-.96-3.69-1.97-5.2-1.01-1.51-2.24-2.78-3.69-3.79-1.45-1.01-3.04-1.77-4.77-2.27-1.73-.51-3.51-.76-5.33-.76-2.49,0-4.81.45-6.94,1.34-2.14.89-4,2.14-5.58,3.74-1.58,1.6-2.81,3.48-3.69,5.66-.88,2.17-1.31,4.54-1.31,7.1s.44,4.92,1.31,7.07c.88,2.15,2.1,4.04,3.69,5.66,1.58,1.62,3.44,2.87,5.58,3.76,2.14.89,4.45,1.34,6.94,1.34,1.82,0,3.6-.25,5.35-.76,1.75-.5,3.34-1.26,4.77-2.27,1.43-1.01,2.65-2.27,3.66-3.79,1.01-1.51,1.67-3.25,1.97-5.2h-7.07c-.5,1.92-1.57,3.4-3.18,4.44-1.62,1.04-3.43,1.57-5.45,1.57s-3.91-.5-5.48-1.49c-1.57-.99-2.79-2.37-3.69-4.14-.89-1.77-1.34-3.83-1.34-6.19s.45-4.46,1.34-6.21c.89-1.75,2.12-3.12,3.69-4.12Z"/>
  <polygon class="cls-1" points="355.38 304.59 371.24 304.59 371.24 298.53 355.38 298.53 355.38 291.01 372.15 291.01 372.15 285 355.38 285 351.84 285 348.36 285 348.36 319.34 352 319.34 355.38 319.34 372.65 319.34 372.65 313.33 355.38 313.33 355.38 304.59"/>
</svg>